<svg xmlns="http://www.w3.org/2000/svg" width="66" height="65.853" viewBox="0 0 66 65.853">
  <defs>
    <style>
      .cls-1 {
        fill: #848484;
        stroke: #848484;
      }
    </style>
  </defs>
  <g id="calendar" transform="translate(0.5 0.5)">
    <g id="Icon-Calendar">
      <path id="Fill-133" class="cls-1" d="M38.235-405.265H-13.529A6.5,6.5,0,0,1-20-411.671v-47.024c0-3.494,2.353-6.406,5.441-6.406h3.235v4.222h-3.235c-.441,0-1.029.874-1.029,2.184v47.024a2.25,2.25,0,0,0,2.206,2.184H38.382a2.25,2.25,0,0,0,2.206-2.184v-47.024c0-1.31-.735-2.184-1.029-2.184H36.324V-465.1h3.235c2.941,0,5.441,2.912,5.441,6.406v47.024a6.969,6.969,0,0,1-6.765,6.406" transform="translate(20 470.118)"/>
      <path id="Fill-134" class="cls-1" d="M-8.691-453.214a2.572,2.572,0,0,1-2.509-2.509v-9.869A2.572,2.572,0,0,1-8.691-468.1a2.572,2.572,0,0,1,2.509,2.509v9.869a2.7,2.7,0,0,1-2.509,2.509" transform="translate(24.012 468.1)"/>
      <path id="Fill-135" class="cls-1" d="M14.709-453.214a2.572,2.572,0,0,1-2.509-2.509v-9.869a2.572,2.572,0,0,1,2.509-2.509,2.572,2.572,0,0,1,2.509,2.509v9.869a2.572,2.572,0,0,1-2.509,2.509" transform="translate(34.679 468.1)"/>
      <path id="Fill-136" class="cls-1" d="M-5.3-465.1H19.12v5.018H-5.3Z" transform="translate(25.453 470.118)"/>
      <path id="Fill-137" class="cls-1" d="M-17.1-456.3H37.864v5.018H-17.1Z" transform="translate(21.951 473.479)"/>
      <path id="Fill-138" class="cls-1" d="M15.2-450.4h4.851v4.851H15.2Z" transform="translate(34.746 476.178)"/>
      <path id="Fill-139" class="cls-1" d="M9.3-450.4h5.018v4.851H9.3Z" transform="translate(33.357 476.178)"/>
      <path id="Fill-140" class="cls-1" d="M3.5-450.4H8.351v4.851H3.5Z" transform="translate(30.725 476.178)"/>
      <path id="Fill-141" class="cls-1" d="M-2.4-450.4H2.451v4.851H-2.4Z" transform="translate(28.033 476.178)"/>
      <path id="Fill-142" class="cls-1" d="M-8.3-450.4h5.018v4.851H-8.3Z" transform="translate(25.334 476.178)"/>
      <path id="Fill-143" class="cls-1" d="M15.2-444.5h4.851v4.851H15.2Z" transform="translate(34.746 478.87)"/>
      <path id="Fill-144" class="cls-1" d="M9.3-444.5h5.018v4.851H9.3Z" transform="translate(33.357 478.87)"/>
      <path id="Fill-145" class="cls-1" d="M3.5-444.5H8.351v4.851H3.5Z" transform="translate(30.725 478.87)"/>
      <path id="Fill-146" class="cls-1" d="M-2.4-444.5H2.451v4.851H-2.4Z" transform="translate(28.033 478.87)"/>
      <path id="Fill-147" class="cls-1" d="M-8.3-444.5h5.018v4.851H-8.3Z" transform="translate(25.334 478.87)"/>
      <path id="Fill-148" class="cls-1" d="M-14.1-444.5h4.851v4.851H-14.1Z" transform="translate(23.969 478.87)"/>
      <path id="Fill-149" class="cls-1" d="M15.2-438.7h4.851v5.018H15.2Z" transform="translate(34.746 481.502)"/>
      <path id="Fill-150" class="cls-1" d="M9.3-438.7h5.018v5.018H9.3Z" transform="translate(33.357 481.502)"/>
      <path id="Fill-151" class="cls-1" d="M3.5-438.7H8.351v5.018H3.5Z" transform="translate(30.725 481.502)"/>
      <path id="Fill-152" class="cls-1" d="M-2.4-438.7H2.451v5.018H-2.4Z" transform="translate(28.033 481.502)"/>
      <path id="Fill-153" class="cls-1" d="M-8.3-438.7h5.018v5.018H-8.3Z" transform="translate(25.334 481.502)"/>
      <path id="Fill-154" class="cls-1" d="M-14.1-438.7h4.851v5.018H-14.1Z" transform="translate(23.969 481.502)"/>
      <path id="Fill-155" class="cls-1" d="M9.3-432.8h5.018v4.851H9.3Z" transform="translate(33.357 482.934)"/>
      <path id="Fill-156" class="cls-1" d="M3.5-432.8H8.351v4.851H3.5Z" transform="translate(30.725 482.934)"/>
      <path id="Fill-157" class="cls-1" d="M-2.4-432.8H2.451v4.851H-2.4Z" transform="translate(28.033 482.934)"/>
      <path id="Fill-158" class="cls-1" d="M-8.3-432.8h5.018v4.851H-8.3Z" transform="translate(25.334 482.934)"/>
      <path id="Fill-159" class="cls-1" d="M-14.1-432.8h4.851v4.851H-14.1Z" transform="translate(23.969 482.934)"/>
    </g>
  </g>
</svg>
