<svg height="69.882" viewBox="0 0 65 69.882" width="65" xmlns="http://www.w3.org/2000/svg"><g fill="#848484"><path d="m141.779 273.012c-1.531 0-2.773 1.6-2.773 3.574s1.241 3.574 2.773 3.574h26.755c1.531 0 2.773-1.6 2.773-3.574s-1.241-3.574-2.773-3.574z" transform="translate(-122.715 -236.726)"/><path d="m312.006 17.88a3.574 3.574 0 0 0 3.574 3.574h10.72v10.721a3.574 3.574 0 1 0 7.147 0v-10.721h10.721a3.574 3.574 0 0 0 0-7.147h-10.72v-10.721a3.574 3.574 0 1 0 -7.147 0v10.721h-10.721a3.574 3.574 0 0 0 -3.574 3.573z" transform="translate(-282.743 -.01)"/><path d="m58.267 37.579-.839-5.979a2.539 2.539 0 0 0 -5.029.7l1.139 8.112a2.538 2.538 0 0 0 2.514 2.188h1.337a2.535 2.535 0 1 1 0 5.07h-49.766a2.535 2.535 0 1 1 0-5.07h1.337a2.538 2.538 0 0 0 2.514-2.183l2.734-19.469a18.306 18.306 0 0 1 7.946-12.748 19.522 19.522 0 0 1 10.606-3.118 18.689 18.689 0 0 1 6.977 1.437 2.536 2.536 0 1 0 2.029-4.647 24.282 24.282 0 0 0 -9.006-1.86 24.589 24.589 0 0 0 -13.413 3.961 23.377 23.377 0 0 0 -10.168 16.27l-2.434 17.336a7.6 7.6 0 0 0 .878 15.159h49.766a7.6 7.6 0 0 0 .878-15.159z" transform="translate(-.006 -.01)"/><path d="m215.466 437.034a3.575 3.575 0 0 0 -3.963 3.137 3.581 3.581 0 0 1 -7.1 0 3.574 3.574 0 1 0 -7.1.826 10.728 10.728 0 0 0 21.294 0 3.574 3.574 0 0 0 -3.131-3.963z" transform="translate(-175.344 -380.529)"/></g></svg>